<svg width="22" height="16" viewBox="0 0 22 16" fill="none" xmlns="http://www.w3.org/2000/svg">
<path d="M15.7152 11.7481H17.6784C18.404 11.7481 18.8789 11.204 19.0946 9.97917C19.2966 8.80346 19.0329 8.27867 18.3012 8.27867L16.336 8.27867L16.6483 6.51457C16.9911 4.50033 18.0208 3.50523 19.7141 3.50523H20.0377C20.9763 3.50523 21.4923 3.34744 21.5628 2.90086C21.6221 2.5964 21.5367 2.18131 21.4442 1.72424C21.3422 1.27826 21.2362 0.84812 21.0863 0.606191C20.8563 0.198412 20.3383 0 19.5169 0C17.4854 0 15.8063 0.555979 14.4915 1.718C13.1822 2.87073 12.3478 4.44083 11.9796 6.54409L11.6654 8.27867L7.5434 8.27867C7.47707 8.27867 3.21572 8.76573 3.21572 8.76573L7.13901 9.37192L7.29776 9.95529L4.89722 10.164L7.41804 10.5336L7.51672 11.0123L0 11.4358C0 11.4358 8.11577 11.7481 8.18404 11.7481L11.0371 11.7481L10.299 16H14.9835" fill="#027CD5"/>
</svg>
